# xmcd
#
# Track frame offsets: 
#        150
#        18367
#        40168
#        59016
#        81399
#        98436
#        119358
#        140494
#        159610
#        180096
#
# Disc length: 2657 seconds
#
# Revision: 0
# Processed by: cddbd v1.5.2PL0 Copyright (c) Steve Scherf et al.
# Submitted via: ExactAudioCopy v0.99pb2
#
DISCID=7a0a5f0a
DTITLE=liquan - a girl striking the match
DYEAR=2005
DGENRE=Pop
TTITLE0=下雨天
TTITLE1=没有你了
TTITLE2=冬之恋曲
TTITLE3=划火柴的女孩
TTITLE4=爱的家园
TTITLE5=我想爱
TTITLE6=该知足
TTITLE7=我真的不是故意的
TTITLE8=没有你的情人节
TTITLE9=月光曲
EXTD=
EXTT0=
EXTT1=
EXTT2=
EXTT3=
EXTT4=
EXTT5=
EXTT6=
EXTT7=
EXTT8=
EXTT9=
PLAYORDER=
